<?xml version="1.0" encoding="UTF-8"?>
<!DOCTYPE svg PUBLIC "-//W3C//DTD SVG 1.1//EN" "http://www.w3.org/Graphics/SVG/1.1/DTD/svg11.dtd">
<svg xmlns="http://www.w3.org/2000/svg" xml:space="preserve" width="10.8272mm" height="10.8373mm" version="1.1" style="shape-rendering:geometricPrecision; text-rendering:geometricPrecision; image-rendering:optimizeQuality; fill-rule:evenodd; clip-rule:evenodd"
viewBox="0 0 30 30"
 xmlns:xlink="http://www.w3.org/1999/xlink">
 <defs>
  <style type="text/css">
   <![CDATA[
    .fil0 {fill:black;fill-rule:nonzero}
   ]]>
  </style>
 </defs>
 <g id="Camada_x0020_1">
  <path class="fil0" d="M15 0c8,0 15,7 15,15 0,11 -11,18 -21,14 -6,-2 -9,-8 -9,-14 0,-8 7,-15 15,-15zm-5 28c3,1 6,1 9,0 -2,0 -3,0 -4,0 -6,-1 -10,-6 -10,-12 0,-6 4,-10 10,-10 5,0 11,5 10,10 0,5 -5,9 -10,8 -3,-1 -6,-5 -6,-8 0,-3 2,-5 5,-5 3,0 5,2 5,5 0,3 -3,6 -6,5 4,3 9,0 10,-5 0,-5 -4,-9 -9,-8 -5,0 -8,4 -8,9 0,5 4,10 8,11 7,2 13,-4 13,-10 0,-7 -6,-13 -13,-13 -7,0 -13,6 -13,13 0,6 3,10 9,12z"/>
 </g>
</svg>
