<?xml version="1.0" encoding="UTF-8"?>
<!DOCTYPE svg PUBLIC "-//W3C//DTD SVG 1.1//EN" "http://www.w3.org/Graphics/SVG/1.1/DTD/svg11.dtd">
<svg xmlns="http://www.w3.org/2000/svg" xml:space="preserve" width="10.8272mm" height="10.8373mm" version="1.1" style="shape-rendering:geometricPrecision; text-rendering:geometricPrecision; image-rendering:optimizeQuality; fill-rule:evenodd; clip-rule:evenodd"
viewBox="0 0 21 21"
 xmlns:xlink="http://www.w3.org/1999/xlink">
 <defs>
  <style type="text/css">
   <![CDATA[
    .fil0 {fill:white;fill-rule:nonzero}
   ]]>
  </style>
 </defs>
 <g id="Camada_x0020_1">
  <path class="fil0" d="M10 0c6,0 10,5 10,10 0,7 -7,13 -14,10 -4,-2 -7,-6 -7,-10 0,-6 5,-10 10,-10zm-3 19c2,1 4,1 6,0 -1,0 -2,0 -3,0 -4,-1 -7,-5 -7,-9 0,-4 3,-7 7,-7 4,0 7,3 7,7 0,4 -4,6 -7,5 -2,-1 -4,-3 -4,-5 0,-2 1,-4 4,-4 2,0 4,1 4,4 0,2 -2,4 -4,4 3,2 7,0 7,-3 0,-3 -3,-6 -6,-6 -3,0 -6,3 -6,6 0,3 3,7 6,7 5,1 9,-2 9,-7 0,-5 -4,-9 -9,-9 -5,0 -9,4 -9,9 0,4 2,7 6,9z"/>
 </g>
</svg>
