<?xml version="1.0" encoding="UTF-8"?>
<!DOCTYPE svg PUBLIC "-//W3C//DTD SVG 1.1//EN" "http://www.w3.org/Graphics/SVG/1.1/DTD/svg11.dtd">
<svg xmlns="http://www.w3.org/2000/svg" xml:space="preserve" width="35.0436mm" height="43.3492mm" version="1.1" style="shape-rendering:geometricPrecision; text-rendering:geometricPrecision; image-rendering:optimizeQuality; fill-rule:evenodd; clip-rule:evenodd"
viewBox="0 0 530 655"
 xmlns:xlink="http://www.w3.org/1999/xlink">
 <defs>
  <style type="text/css">
   <![CDATA[
    .fil0 {fill:white}
   ]]>
  </style>
 </defs>
 <g id="Camada_x0020_1">
  <metadata id="CorelCorpID_0Corel-Layer"/>
  <path class="fil0" d="M465 434l-16 221 -46 0 -29 -19c37,-31 61,-78 61,-131 0,-90 -70,-164 -158,-170l0 -336 36 0 9 13 64 0c26,140 52,281 78,421zm65 221l-65 0 16 -229 33 0 16 229zm-530 0l65 0 -16 -229 -33 0 -16 229zm64 -221l16 221 46 0 47 -30 17 12 -29 19 206 0 -28 -18c46,-26 76,-75 76,-131 0,-83 -68,-151 -151,-151 -4,0 -8,0 -12,0l0 -355 -36 0 -9 13 -64 0c-26,140 -52,281 -78,421zm200 -52c69,0 124,56 124,124 0,69 -56,124 -124,124 -69,0 -124,-56 -124,-124 0,-69 56,-124 124,-124z"/>
 </g>
</svg>
