<svg id="el_EHRT0qXw0" xmlns="http://www.w3.org/2000/svg" viewBox="0 0 60 60"><style>@-webkit-keyframes el_i09eXzU8pl_KySTnEhpH_Animation{0%,10%{-webkit-transform:rotate(0deg);transform:rotate(0deg)}23.33%,43.33%{-webkit-transform:rotate(90deg);transform:rotate(90deg)}56.67%,76.67%{-webkit-transform:rotate(180deg);transform:rotate(180deg)}90%,to{-webkit-transform:rotate(270deg);transform:rotate(270deg)}}@keyframes el_i09eXzU8pl_KySTnEhpH_Animation{0%,10%{-webkit-transform:rotate(0deg);transform:rotate(0deg)}23.33%,43.33%{-webkit-transform:rotate(90deg);transform:rotate(90deg)}56.67%,76.67%{-webkit-transform:rotate(180deg);transform:rotate(180deg)}90%,to{-webkit-transform:rotate(270deg);transform:rotate(270deg)}}@-webkit-keyframes el_k4bZa8ZH3S_Animation{0%,33.33%,66.67%,to{opacity:0}13.33%,20%,46.67%,53.33%,80%,86.67%{opacity:1}}@keyframes el_k4bZa8ZH3S_Animation{0%,33.33%,66.67%,to{opacity:0}13.33%,20%,46.67%,53.33%,80%,86.67%{opacity:1}}@-webkit-keyframes el_DhlZCl1vfD_iN-krsrWZ_Animation{0%,33.33%,66.67%,to{-webkit-transform:translate(0,0);transform:translate(0,0)}13.33%,20%,46.67%,53.33%,80%,86.67%{-webkit-transform:translate(-17px,-17px);transform:translate(-17px,-17px)}}@keyframes el_DhlZCl1vfD_iN-krsrWZ_Animation{0%,33.33%,66.67%,to{-webkit-transform:translate(0,0);transform:translate(0,0)}13.33%,20%,46.67%,53.33%,80%,86.67%{-webkit-transform:translate(-17px,-17px);transform:translate(-17px,-17px)}}@-webkit-keyframes el_mkCkkCd1Li_9hwnadT3N_Animation{0%,33.33%,66.67%,to{-webkit-transform:translate(0,0);transform:translate(0,0)}13.33%,20%,46.67%,53.33%,80%,86.67%{-webkit-transform:translate(17px,-17px);transform:translate(17px,-17px)}}@keyframes el_mkCkkCd1Li_9hwnadT3N_Animation{0%,33.33%,66.67%,to{-webkit-transform:translate(0,0);transform:translate(0,0)}13.33%,20%,46.67%,53.33%,80%,86.67%{-webkit-transform:translate(17px,-17px);transform:translate(17px,-17px)}}@-webkit-keyframes el_MFMhK8r-ll_Cy39d_8XA_Animation{0%,33.33%,66.67%,to{-webkit-transform:translate(0,0);transform:translate(0,0)}13.33%,20%,46.67%,53.33%,80%,86.67%{-webkit-transform:translate(17px,17px);transform:translate(17px,17px)}}@keyframes el_MFMhK8r-ll_Cy39d_8XA_Animation{0%,33.33%,66.67%,to{-webkit-transform:translate(0,0);transform:translate(0,0)}13.33%,20%,46.67%,53.33%,80%,86.67%{-webkit-transform:translate(17px,17px);transform:translate(17px,17px)}}@-webkit-keyframes el_hGaw-Q7oPp_xSp6GO7Rt_Animation{0%,33.33%,66.67%,to{-webkit-transform:translate(0,0);transform:translate(0,0)}13.33%,20%,46.67%,53.33%,80%,86.67%{-webkit-transform:translate(-17px,17px);transform:translate(-17px,17px)}}@keyframes el_hGaw-Q7oPp_xSp6GO7Rt_Animation{0%,33.33%,66.67%,to{-webkit-transform:translate(0,0);transform:translate(0,0)}13.33%,20%,46.67%,53.33%,80%,86.67%{-webkit-transform:translate(-17px,17px);transform:translate(-17px,17px)}}#el_EHRT0qXw0 *{-webkit-animation-duration:3s;animation-duration:3s;-webkit-animation-iteration-count:infinite;animation-iteration-count:infinite;-webkit-animation-timing-function:cubic-bezier(0,0,1,1);animation-timing-function:cubic-bezier(0,0,1,1)}.marker-player-animated-fill{fill:#00ffda}</style><g id="el_skVxOe26hG"><g data-animator-group="true" data-animator-type="0" style="-webkit-animation-name:el_hGaw-Q7oPp_xSp6GO7Rt_Animation;animation-name:el_hGaw-Q7oPp_xSp6GO7Rt_Animation;-webkit-animation-timing-function:cubic-bezier(.42,0,.58,1);animation-timing-function:cubic-bezier(.42,0,.58,1);-webkit-transform-origin:50% 50%;transform-origin:50% 50%;transform-box:fill-box"><path class="marker-player-animated-fill" id="el_hGaw-Q7oPp" d="M46.7 14.7l3.4-3.4-1.4-1.4-3.5 3.5c.6.4 1.1.8 1.5 1.3z"/></g><g data-animator-group="true" data-animator-type="0" style="-webkit-animation-name:el_MFMhK8r-ll_Cy39d_8XA_Animation;animation-name:el_MFMhK8r-ll_Cy39d_8XA_Animation;-webkit-animation-timing-function:cubic-bezier(.42,0,.58,1);animation-timing-function:cubic-bezier(.42,0,.58,1);-webkit-transform-origin:50% 50%;transform-origin:50% 50%;transform-box:fill-box"><path class="marker-player-animated-fill" id="el_MFMhK8r-ll" d="M14.7 13.3l-3.5-3.5-1.4 1.4 3.4 3.4c.5-.4 1-.8 1.5-1.3z"/></g><g data-animator-group="true" data-animator-type="0" style="-webkit-animation-name:el_mkCkkCd1Li_9hwnadT3N_Animation;animation-name:el_mkCkkCd1Li_9hwnadT3N_Animation;-webkit-animation-timing-function:cubic-bezier(.42,0,.58,1);animation-timing-function:cubic-bezier(.42,0,.58,1);-webkit-transform-origin:50% 50%;transform-origin:50% 50%;transform-box:fill-box"><path class="marker-player-animated-fill" id="el_mkCkkCd1Li" d="M12.8 45.8l-3 3 1.4 1.4 2.9-2.9c-.4-.5-.8-1-1.3-1.5z"/></g><g data-animator-group="true" data-animator-type="0" style="-webkit-animation-name:el_DhlZCl1vfD_iN-krsrWZ_Animation;animation-name:el_DhlZCl1vfD_iN-krsrWZ_Animation;-webkit-animation-timing-function:cubic-bezier(.42,0,.58,1);animation-timing-function:cubic-bezier(.42,0,.58,1);-webkit-transform-origin:50% 50%;transform-origin:50% 50%;transform-box:fill-box"><path class="marker-player-animated-fill" id="el_DhlZCl1vfD" d="M45.8 47.2l2.9 2.9 1.4-1.4-3-3c-.4.6-.8 1.1-1.3 1.5z"/></g></g><g style="-webkit-animation-name:el_k4bZa8ZH3S_Animation;animation-name:el_k4bZa8ZH3S_Animation;-webkit-animation-timing-function:cubic-bezier(.42,0,.58,1);animation-timing-function:cubic-bezier(.42,0,.58,1)"><path class="marker-player-animated-fill" d="M30 12c9.9 0 18 8.1 18 18s-8.1 18-18 18-18-8.1-18-18 8.1-18 18-18m0-2c-11 0-20 9-20 20s9 20 20 20 20-9 20-20-9-20-20-20z" id="el_6rdGxHqOFv"/></g><g data-animator-group="true" data-animator-type="1" style="-webkit-animation-name:el_i09eXzU8pl_KySTnEhpH_Animation;animation-name:el_i09eXzU8pl_KySTnEhpH_Animation;-webkit-animation-timing-function:cubic-bezier(.42,0,.58,1);animation-timing-function:cubic-bezier(.42,0,.58,1);-webkit-transform-origin:50% 50%;transform-origin:50% 50%;transform-box:fill-box"><g id="el_i09eXzU8pl"><path class="marker-player-animated-fill" d="M22.2 19.6C24.4 18 27.1 17 30 17s5.6 1 7.8 2.6l1.4-1.4c-2.5-2-5.7-3.2-9.2-3.2-1 0-2 .1-3 .3-1 .2-1.9.5-2.8.9-1.2.5-2.3 1.2-3.4 2l1.4 1.4z" id="el_WVQrpV_OsV"/><path class="marker-player-animated-fill" d="M17 30c0-3.2 1.2-6.1 3.1-8.3l-1.4-1.4c-.4.4-.7.9-1.1 1.4C15.9 24 15 26.9 15 30c0 3.1.9 6 2.6 8.4.2.3.4.5.6.8l1.4-1.4C18 35.6 17 32.9 17 30z" id="el_xj-6pSkP37"/><path class="marker-player-animated-fill" d="M38.3 39.9C36.1 41.8 33.2 43 30 43s-6.1-1.2-8.3-3.1l-1.4 1.4.2.2c1.1.9 2.4 1.7 3.7 2.2.9.4 1.8.7 2.8.9 1 .2 2 .3 3 .3 3.7 0 7.1-1.4 9.7-3.6l-1.4-1.4z" id="el_Q1WO6_ZAuh"/><path class="marker-player-animated-fill" d="M43 30c0 2.9-1 5.6-2.6 7.8l1.4 1.4c2-2.5 3.2-5.7 3.2-9.2 0-3.7-1.4-7.1-3.6-9.7L40 21.7c1.8 2.2 3 5.1 3 8.3z" id="el_HLCiwgvT8u"/></g></g><circle class="marker-player-animated-fill" cx="30" cy="30" r="1.5" id="el_2Jl3YyR2RU"/><script>(function(){var a=document.querySelector(&apos;#el_EHRT0qXw0&apos;),b=a.querySelectorAll(&apos;style&apos;),c=function(d){b.forEach(function(f){var g=f.textContent;g&amp;&amp;(f.textContent=g.replace(/transform-box:[^;\r\n]*/gi,&apos;transform-box: &apos;+d))})};c(&apos;initial&apos;),window.requestAnimationFrame(function(){return c(&apos;fill-box&apos;)})})();</script></svg>