<?xml version="1.0" encoding="UTF-8"?>
<!DOCTYPE svg PUBLIC "-//W3C//DTD SVG 1.1//EN" "http://www.w3.org/Graphics/SVG/1.1/DTD/svg11.dtd">
<!-- Creator: CorelDRAW 2017 -->
<svg xmlns="http://www.w3.org/2000/svg" xml:space="preserve" width="25.6505mm" height="43.3492mm" version="1.1" style="shape-rendering:geometricPrecision; text-rendering:geometricPrecision; image-rendering:optimizeQuality; fill-rule:evenodd; clip-rule:evenodd"
viewBox="0 0 158 267"
 xmlns:xlink="http://www.w3.org/1999/xlink">
 <defs>
  <style type="text/css">
   <![CDATA[
    .fil0 {fill:white}
   ]]>
  </style>
 </defs>
 <g id="Camada_x0020_1">
  <metadata id="CorelCorpID_0Corel-Layer"/>
  <path class="fil0" d="M87 0l71 0 0 267 -71 0 0 -117c30,-4 52,-29 52,-60 0,-31 -23,-56 -52,-60l0 -30zm-8 103c7,0 13,-6 13,-13 0,-7 -6,-13 -13,-13 -7,0 -13,6 -13,13 0,7 6,13 13,13zm0 31c24,0 44,-20 44,-44 0,-24 -20,-44 -44,-44 -24,0 -44,20 -44,44 0,24 20,44 44,44zm0 -17c15,0 27,-12 27,-27 0,-15 -12,-27 -27,-27 -15,0 -27,12 -27,27 0,15 12,27 27,27zm-79 -117l71 0 0 30c-30,4 -52,29 -52,60 0,31 23,56 52,60l0 117 -71 0 0 -267z"/>
 </g>
</svg>
